<!DOCTYPE svg PUBLIC "-//W3C//DTD SVG 1.1//EN" "http://www.w3.org/Graphics/SVG/1.1/DTD/svg11.dtd">
<!-- Uploaded to: SVG Repo, www.svgrepo.com, Transformed by: SVG Repo Mixer Tools -->
<svg fill="#ffffff" height="800px" width="800px" version="1.1" id="Layer_1" xmlns="http://www.w3.org/2000/svg" xmlns:xlink="http://www.w3.org/1999/xlink" viewBox="0 0 300 300" xml:space="preserve">
<g id="SVGRepo_bgCarrier" stroke-width="0"/>
<g id="SVGRepo_tracerCarrier" stroke-linecap="round" stroke-linejoin="round"/>
<g id="SVGRepo_iconCarrier"> <g> <g> <g> <path d="M279.332,216.148c0.148-1.228,0.228-2.452,0.228-3.66c0-0.224-0.028-0.44-0.068-0.656l-16.56-78.112 c-0.084-8.396-7.96-22.068-7.96-22.78V69.38c0-0.844-0.336-1.644-0.932-2.244c-0.592-0.588-1.4-0.924-2.24-0.924h-0.004 l-44.552,0.084V48.652h40.712c1.748,0,3.168-1.416,3.168-3.168V9.12c0-1.748-1.42-3.168-3.168-3.168H140.952 c-1.748,0-3.168,1.42-3.168,3.168v36.364c0,1.752,1.42,3.168,3.168,3.168h40.712v17.692l-63.392,0.128v-25.26 c0-0.86-0.5-1.64-1.28-2.008c-0.776-0.36-1.7-0.248-2.356,0.308c-0.46,0.38-1.22,0.832-2.236,0.832 c-1.56,0-2.908-1.02-3.352-2.536c-0.272-0.94-1.14-1.592-2.124-1.592h-0.004c-0.988,0.004-1.856,0.656-2.124,1.604 c-0.44,1.524-1.788,2.548-3.352,2.548c-1.544,0-2.92-1.048-3.352-2.552c-0.268-0.948-1.136-1.6-2.12-1.604h-0.008 c-0.984,0-1.848,0.644-2.124,1.588c-0.452,1.512-1.792,2.528-3.348,2.528c-1.54,0-2.92-1.048-3.352-2.544 c-0.268-0.948-1.136-1.6-2.124-1.6h-0.004c-0.984,0-1.852,0.648-2.124,1.592c-0.444,1.516-1.792,2.536-3.348,2.536 c-1.02,0-1.776-0.456-2.228-0.832c-0.66-0.556-1.576-0.668-2.36-0.308c-0.78,0.36-1.28,1.148-1.28,2.008v24.912L50.244,66.22 c-1.744,0.012-3.152,1.428-3.152,3.168v41.56c0,0.712-7.876,14.384-7.96,22.78L22.576,211.84 c-0.044,0.216-0.068,0.432-0.068,0.656c0,1.108,0.076,2.224,0.2,3.348C9.956,217.244,0,228.076,0,241.192v27.344 c0,14.064,11.448,25.512,25.512,25.512h248.976c14.064,0,25.512-11.448,25.512-25.512v-27.344 C299.992,228.776,291.084,218.42,279.332,216.148z M144.12,42.32V12.292h100.672V42.32H144.12z M200.912,49.712v15.392H188 V49.712H200.912z M85.004,42.52c2.896,2.804,8.104,2.788,10.96,0.048c2.892,2.788,8.092,2.78,10.976-0.008 c1.784,1.712,4.432,2.54,6.904,2.084v44.428H78.108V44.604C80.603,45.075,83.225,44.227,85.004,42.52z M53.424,72.532 l20.244-0.112v16.652h-6.096c-1.752,0-3.168,1.416-3.168,3.168c0,1.752,1.416,3.168,3.168,3.168h58.18 c1.748,0,3.168-1.416,3.168-3.168c0-1.748-1.416-3.168-3.168-3.168h-7.48v-16.26l130.364-0.256v35.216h-2.204 c-2.344-0.888-4.844-1.388-7.44-1.388c0,0-181.02,0.5-183.368,1.388h-2.2V72.532z M45.392,134.712 c0.044-0.212,0.068-0.432,0.068-0.656c0-9.172,4.592-18.912,11.304-21.924h188.072c6.712,3.012,11.764,12.752,11.764,21.924 c0,0.224,0.028,0.44,0.068,0.656l16.556,78.092c-0.012,0.94-0.092,1.9-0.22,2.864H29.06c-0.128-0.96-0.208-1.92-0.22-2.864 L45.392,134.712z M274.48,287.7H25.504c-10.576,0-19.176-8.604-19.176-19.176V241.18c0-10.572,8.6-19.172,19.176-19.172H25.6 c0.272,0.076,0.548,0.144,0.84,0.144h249.18c0.036,0,0.068-0.016,0.104-0.02c9.984,0.656,17.928,8.904,17.928,19.048v27.344 h0.004C293.656,279.096,285.056,287.7,274.48,287.7z"/> <path d="M249.828,234.992h26.564c1.228,0,2.22-0.992,2.22-2.216c0-1.228-0.992-2.22-2.22-2.22h-26.564 c-1.228,0-2.216,0.992-2.216,2.22C247.612,234.004,248.6,234.992,249.828,234.992z"/> <path d="M227.984,234.736l15.536,0.256h0.04c1.208,0,2.196-0.968,2.216-2.18c0.024-1.224-0.952-2.236-2.176-2.256l-15.544-0.256 c-1.188,0.144-2.228,0.956-2.252,2.18C225.784,233.704,226.756,234.716,227.984,234.736z"/> <path d="M22.936,234.992L22.936,234.992c60.924-1.096,122.6-1.284,183.332-0.556h0.028c1.212,0,2.2-0.972,2.216-2.192 c0.012-1.224-0.964-2.228-2.192-2.244c-60.772-0.736-122.5-0.54-183.464,0.556c-1.224,0.02-2.2,1.036-2.176,2.256 c0.02,1.212,1.012,2.18,2.216,2.18H22.936z"/> <path d="M278.468,274.716H24.976c-1.228,0-2.22,0.992-2.22,2.216c0,1.228,0.992,2.22,2.22,2.22h253.492 c1.228,0,2.216-0.992,2.216-2.22C280.684,275.704,279.696,274.716,278.468,274.716z"/> <path d="M68.352,150.38h33.272l-3.28,21.528c-0.184,1.212,0.648,2.344,1.856,2.528c0.112,0.02,0.228,0.028,0.34,0.028 c1.076,0,2.02-0.788,2.188-1.88l3.38-22.2h26.912c1.228,0,2.216-0.992,2.216-2.216c0-1.228-0.988-2.22-2.216-2.22h-26.236 l2.196-14.416c0.184-1.212-0.644-2.344-1.852-2.528c-1.184-0.184-2.344,0.648-2.528,1.856l-2.3,15.084H68.352 c-1.228,0-2.22,0.992-2.22,2.22C66.136,149.388,67.124,150.38,68.352,150.38z"/> <path d="M61.08,187.784h34.848l-2.408,15.804c-0.184,1.212,0.648,2.344,1.856,2.528c0.112,0.016,0.228,0.024,0.34,0.024 c1.076,0,2.02-0.784,2.188-1.88l2.512-16.476h46.824l0.28,14.1c0.024,1.208,1.012,2.172,2.216,2.172h0.044 c1.228-0.024,2.196-1.04,2.176-2.26l-0.28-14.012h46.9l2.3,15.084c0.168,1.096,1.112,1.88,2.188,1.88 c0.112,0,0.228-0.008,0.34-0.024c1.208-0.184,2.04-1.312,1.856-2.528l-2.196-14.416h34.632c1.228,0,2.22-0.992,2.22-2.216 c0-1.228-0.992-2.22-2.22-2.22h-35.308l-5.024-32.968h33.064c1.224,0,2.216-0.992,2.216-2.216c0-1.228-0.992-2.22-2.216-2.22 h-33.74l-2.512-16.468c-0.184-1.212-1.344-2.048-2.528-1.856c-1.208,0.184-2.036,1.312-1.852,2.528l2.408,15.796h-41.36 l-0.28-14.1c-0.032-1.224-1.02-2.408-2.26-2.172c-1.224,0.024-2.196,1.04-2.172,2.26l1.02,51.416H61.08 c-1.228,0-2.22,0.992-2.22,2.22S59.852,187.784,61.08,187.784z M192.872,150.38l5.024,32.968h-46.312l-0.652-32.968H192.872z"/> <path d="M144.312,257.452c0,4.276,3.484,7.76,7.76,7.76s7.752-3.484,7.752-7.76c0-4.276-3.476-7.752-7.752-7.752 C147.796,249.696,144.312,253.176,144.312,257.452z M155.392,257.452c0,1.832-1.488,3.324-3.32,3.324 c-1.832,0-3.328-1.492-3.328-3.324c0-1.832,1.496-3.32,3.328-3.32C153.904,254.132,155.392,255.616,155.392,257.452z"/> <path d="M83.156,58.092h25.192c1.228,0,2.22-0.992,2.22-2.22c0-1.224-0.992-2.216-2.22-2.216H83.156 c-1.228,0-2.22,0.992-2.22,2.216C80.936,57.1,81.928,58.092,83.156,58.092z"/> <path d="M83.48,63.004c-1.332,0.088-2.244,0.932-2.284,2.152C81.16,66.38,82.12,67.4,83.348,67.44l8.736,0.264h0.064 c1.196,0,2.18-0.952,2.22-2.152c0.036-1.224-0.924-2.244-2.152-2.284L83.48,63.004z"/> <path d="M108.06,63.272l-8.736-0.264c-1.348,0.088-2.24,0.932-2.28,2.152c-0.036,1.224,0.924,2.244,2.152,2.284l8.736,0.264 h0.064c1.196,0,2.176-0.952,2.216-2.152C110.248,64.332,109.288,63.312,108.06,63.272z"/> <path d="M82.732,78.872h0.02l18.9-0.184c1.224-0.012,2.208-1.012,2.196-2.24c-0.012-1.22-1-2.196-2.216-2.196h-0.02 l-18.904,0.184c-1.22,0.012-2.208,1.012-2.196,2.24C80.524,77.896,81.516,78.872,82.732,78.872z"/> <path d="M157.96,98.612h73.24c5.232,0,9.492-4.26,9.492-9.492c0-5.232-4.26-9.488-9.492-9.488h-73.24 c-5.232,0-9.492,4.256-9.492,9.488C148.468,94.352,152.728,98.612,157.96,98.612z M157.96,84.064h73.24 c2.788,0,5.056,2.264,5.056,5.052c0,2.788-2.268,5.056-5.056,5.056h-73.24c-2.788,0-5.056-2.268-5.056-5.056 C152.904,86.328,155.168,84.064,157.96,84.064z"/> <path d="M219.704,33.92h-66.028c-1,0-1.816-0.816-1.816-1.816v-11.12c0-1.228-0.992-2.216-2.22-2.216 c-1.224,0-2.216,0.988-2.216,2.216v11.12c0,3.444,2.8,6.248,6.248,6.248H219.7c1.228,0,2.22-0.992,2.22-2.22 C221.924,34.912,220.932,33.92,219.704,33.92z"/> <path d="M233.92,14.736h-74.912c-1.228,0-2.22,0.992-2.22,2.216c0,1.228,0.992,2.22,2.22,2.22h74.916 c1,0,1.816,0.816,1.816,1.816v11.12c0,1-0.816,1.816-1.816,1.816c-1.228,0-2.216,0.992-2.216,2.22 c0,1.224,0.988,2.216,2.216,2.216c3.448,0,6.248-2.8,6.248-6.248v-11.12C240.168,17.54,237.368,14.736,233.92,14.736z"/> </g> </g> </g> </g>
</svg>